<?xml version="1.0" encoding="iso-8859-1"?>
<svg version="1.1" display="none" xmlns="http://www.w3.org/2000/svg" xmlns:xlink="http://www.w3.org/1999/xlink">
    <symbol id="svg_arrow" viewBox="0 0 612 612">
        <g>
            <path d="M604.501,134.782c-9.999-10.05-26.222-10.05-36.221,0L306.014,422.558L43.721,134.782
                c-9.999-10.05-26.223-10.05-36.222,0s-9.999,26.35,0,36.399l279.103,306.241c5.331,5.357,12.422,7.652,19.386,7.296
                c6.988,0.356,14.055-1.939,19.386-7.296l279.128-306.268C614.5,161.106,614.5,144.832,604.501,134.782z" />
        </g>
    </symbol>
    <symbol id="svg_shipped" viewBox="0 0 512 512">
        <g>
            <g>
                <path d="M476.158,231.363l-13.259-53.035c3.625-0.77,6.345-3.986,6.345-7.839v-8.551c0-18.566-15.105-33.67-33.67-33.67h-60.392
            V110.63c0-9.136-7.432-16.568-16.568-16.568H50.772c-9.136,0-16.568,7.432-16.568,16.568V256c0,4.427,3.589,8.017,8.017,8.017
            c4.427,0,8.017-3.589,8.017-8.017V110.63c0-0.295,0.239-0.534,0.534-0.534h307.841c0.295,0,0.534,0.239,0.534,0.534v145.372
            c0,4.427,3.589,8.017,8.017,8.017c4.427,0,8.017-3.589,8.017-8.017v-9.088h94.569c0.008,0,0.014,0.002,0.021,0.002
            c0.008,0,0.015-0.001,0.022-0.001c11.637,0.008,21.518,7.646,24.912,18.171h-24.928c-4.427,0-8.017,3.589-8.017,8.017v17.102
            c0,13.851,11.268,25.119,25.119,25.119h9.086v35.273h-20.962c-6.886-19.883-25.787-34.205-47.982-34.205
            s-41.097,14.322-47.982,34.205h-3.86v-60.393c0-4.427-3.589-8.017-8.017-8.017c-4.427,0-8.017,3.589-8.017,8.017v60.391H192.817
            c-6.886-19.883-25.787-34.205-47.982-34.205s-41.097,14.322-47.982,34.205H50.772c-0.295,0-0.534-0.239-0.534-0.534v-17.637
            h34.739c4.427,0,8.017-3.589,8.017-8.017s-3.589-8.017-8.017-8.017H8.017c-4.427,0-8.017,3.589-8.017,8.017
            s3.589,8.017,8.017,8.017h26.188v17.637c0,9.136,7.432,16.568,16.568,16.568h43.304c-0.002,0.178-0.014,0.355-0.014,0.534
            c0,27.996,22.777,50.772,50.772,50.772s50.772-22.776,50.772-50.772c0-0.18-0.012-0.356-0.014-0.534h180.67
            c-0.002,0.178-0.014,0.355-0.014,0.534c0,27.996,22.777,50.772,50.772,50.772c27.995,0,50.772-22.776,50.772-50.772
            c0-0.18-0.012-0.356-0.014-0.534h26.203c4.427,0,8.017-3.589,8.017-8.017v-85.511C512,251.989,496.423,234.448,476.158,231.363z
             M375.182,144.301h60.392c9.725,0,17.637,7.912,17.637,17.637v0.534h-78.029V144.301z M375.182,230.881v-52.376h71.235
            l13.094,52.376H375.182z M144.835,401.904c-19.155,0-34.739-15.583-34.739-34.739s15.584-34.739,34.739-34.739
            c19.155,0,34.739,15.583,34.739,34.739S163.99,401.904,144.835,401.904z M427.023,401.904c-19.155,0-34.739-15.583-34.739-34.739
            s15.584-34.739,34.739-34.739c19.155,0,34.739,15.583,34.739,34.739S446.178,401.904,427.023,401.904z M495.967,299.29h-9.086
            c-5.01,0-9.086-4.076-9.086-9.086v-9.086h18.171V299.29z" />
            </g>
        </g>
        <g>
            <g>
                <path d="M144.835,350.597c-9.136,0-16.568,7.432-16.568,16.568c0,9.136,7.432,16.568,16.568,16.568
            c9.136,0,16.568-7.432,16.568-16.568C161.403,358.029,153.971,350.597,144.835,350.597z" />
            </g>
        </g>
        <g>
            <g>
                <path d="M427.023,350.597c-9.136,0-16.568,7.432-16.568,16.568c0,9.136,7.432,16.568,16.568,16.568
            c9.136,0,16.568-7.432,16.568-16.568C443.591,358.029,436.159,350.597,427.023,350.597z" />
            </g>
        </g>
        <g>
            <g>
                <path d="M332.96,316.393H213.244c-4.427,0-8.017,3.589-8.017,8.017s3.589,8.017,8.017,8.017H332.96
            c4.427,0,8.017-3.589,8.017-8.017S337.388,316.393,332.96,316.393z" />
            </g>
        </g>
        <g>
            <g>
                <path d="M127.733,282.188H25.119c-4.427,0-8.017,3.589-8.017,8.017s3.589,8.017,8.017,8.017h102.614
            c4.427,0,8.017-3.589,8.017-8.017S132.16,282.188,127.733,282.188z" />
            </g>
        </g>
        <g>
            <g>
                <path d="M278.771,173.37c-3.13-3.13-8.207-3.13-11.337,0.001l-71.292,71.291l-37.087-37.087c-3.131-3.131-8.207-3.131-11.337,0
            c-3.131,3.131-3.131,8.206,0,11.337l42.756,42.756c1.565,1.566,3.617,2.348,5.668,2.348s4.104-0.782,5.668-2.348l76.96-76.96
            C281.901,181.576,281.901,176.501,278.771,173.37z" />
            </g>
        </g>
    </symbol>
    <symbol id="svg_guarantee" viewBox="-5 0 457 457.1744">
        <g>
            <path d="m333.03125 221.191406c.007812-7.480468-3.40625-14.550781-9.265625-19.199218 6.179687-7.28125 7.566406-17.488282 3.554687-26.152344-4.015624-8.667969-12.699218-14.210938-22.246093-14.203125h-54.472657l2.25-5.953125c3.542969-9.328125 5.351563-19.222656 5.34375-29.199219v-.886719c-.003906-7.585937-3.078124-14.847656-8.527343-20.128906-5.445313-5.28125-12.796875-8.132812-20.378907-7.90625-15.347656.816406-27.332031 13.566406-27.199218 28.933594 0 7.277344-10.226563 24-18.511719 35.152344h-61.433594c-3.867187 0-7 3.132812-7 7v140.113281c0 3.867187 3.132813 7 7 7h171.96875c8.84375.003906 17.003907-4.757813 21.351563-12.457031 4.34375-7.703126 4.207031-17.148438-.367188-24.71875 7.03125-3.148438 12.171875-9.425782 13.875-16.941407 1.707032-7.515625-.226562-15.394531-5.210937-21.269531 5.855469-4.644531 9.269531-11.710938 9.269531-19.183594zm-203.886719-45.539062h50.890625v126.109375h-50.890625zm179.371094 56.054687h-3.445313c-3.867187 0-7 3.132813-7 7 0 3.867188 3.132813 7 7 7 5.804688 0 10.511719 4.707031 10.511719 10.515625 0 5.804688-4.707031 10.511719-10.511719 10.511719h-10.957031c-3.867187 0-7 3.136719-7 7 0 3.867187 3.132813 7 7 7 5.804688 0 10.511719 4.707031 10.511719 10.515625 0 5.804688-4.707031 10.511719-10.511719 10.511719h-100.078125v-130.742188c5.933594-7.847656 22.054688-30.480469 22.054688-44.519531-.183594-7.8125 5.804687-14.390625 13.597656-14.945312 3.804688-.117188 7.496094 1.3125 10.230469 3.960937 2.730469 2.648437 4.273437 6.292969 4.273437 10.097656v.886719c.007813 8.28125-1.496094 16.496094-4.433594 24.238281l-5.835937 15.449219c-.8125 2.152344-.519531 4.5625.789063 6.457031 1.304687 1.890625 3.457031 3.019531 5.757812 3.023438h64.601562c5.804688 0 10.511719 4.707031 10.511719 10.511719 0 5.808593-4.707031 10.515624-10.511719 10.515624-3.867187 0-7 3.132813-7 7 0 3.867188 3.132813 7 7 7h3.445313c5.808594 0 10.515625 4.707032 10.515625 10.515626 0 5.808593-4.707031 10.515624-10.515625 10.515624zm-158.746094 29.464844c-10.0625 0-18.214843 8.15625-18.214843 18.214844 0 10.0625 8.152343 18.214843 18.214843 18.214843 10.058594 0 18.214844-8.152343 18.214844-18.214843-.011719-10.054688-8.160156-18.203125-18.214844-18.214844zm0 22.425781c-2.328125 0-4.21875-1.886718-4.214843-4.214844 0-2.328124 1.886718-4.21875 4.214843-4.214843 2.332031 0 4.21875 1.890625 4.214844 4.21875s-1.890625 4.210937-4.214844 4.210937zm291.277344-71.675781c6.464844-10.152344 8.59375-22.46875 5.914063-34.203125-2.675782-11.730469-9.9375-21.90625-20.164063-28.25-10.21875-6.375-15.851563-18.066406-14.464844-30.03125 1.417969-11.949219-2.007812-23.972656-9.511719-33.378906-7.503906-9.410156-18.460937-15.425782-30.425781-16.707032-11.972656-1.304687-22.117187-9.386718-26.0625-20.765624-3.910156-11.382813-12.210937-20.726563-23.054687-25.949219-10.84375-5.21875-23.328125-5.886719-34.664063-1.84375-11.355469 4.011719-24.007812 1.125-32.496093-7.417969-8.460938-8.558594-19.996094-13.375-32.03125-13.375-12.035157 0-23.570313 4.816406-32.03125 13.375-8.488282 8.546875-21.144532 11.433594-32.496094 7.417969-11.339844-4.039063-23.816406-3.371094-34.660156 1.847656-10.839844 5.222656-19.144532 14.566406-23.054688 25.945313-3.9375 11.382812-14.085938 19.472656-26.058594 20.777343-11.96875 1.28125-22.925781 7.296875-30.425781 16.707031-7.503906 9.410157-10.929687 21.429688-9.515625 33.382813 1.390625 11.960937-4.242188 23.652344-14.457031 30.027344-10.226563 6.34375-17.488281 16.515625-20.164063 28.246093-2.679687 11.730469-.550781 24.042969 5.90625 34.195313 6.441406 10.175781 6.441406 23.152344 0 33.328125-6.460937 10.15625-8.589844 22.472656-5.914062 34.203125 2.679687 11.734375 9.941406 21.910156 20.164062 28.253906 10.222656 6.375 15.851563 18.066407 14.464844 30.027344-1.414062 11.953125 2.011719 23.972656 9.515625 33.382813 7.5 9.410156 18.457031 15.425781 30.425781 16.707031 11.96875 1.300781 22.117188 9.386719 26.058594 20.761719 3.910156 11.382812 12.214844 20.726562 23.058594 25.949218s23.324218 5.886719 34.664062 1.847656c11.351563-4.019531 24.007813-1.132812 32.496094 7.417969 8.460938 8.558594 19.996094 13.375 32.03125 13.375s23.570312-4.816406 32.03125-13.375c8.488281-8.546875 21.140625-11.433593 32.496094-7.417969 11.335937 4.039063 23.816406 3.371094 34.65625-1.851562 10.84375-5.21875 19.144531-14.5625 23.054687-25.945312 3.941407-11.378907 14.089844-19.46875 26.0625-20.773438 11.964844-1.28125 22.921875-7.296875 30.425781-16.707031 7.503907-9.410157 10.929688-21.429688 9.511719-33.382813-1.386719-11.960937 4.242188-23.652344 14.460938-30.027344 10.226562-6.34375 17.488281-16.519531 20.167969-28.25 2.679687-11.734374.550781-24.050781-5.914063-34.207031-6.433594-10.171875-6.433594-23.140625 0-33.316406zm-11.808594 40.84375c4.453125 7 5.921875 15.488281 4.074219 23.574219-1.84375 8.085937-6.851562 15.097656-13.898438 19.472656-14.828124 9.25-23 26.214844-20.984374 43.574219.976562 8.238281-1.386719 16.523437-6.558594 23.007812s-12.722656 10.628907-20.96875 11.511719c-17.375 1.898438-32.097656 13.636719-37.8125 30.152344-2.695313 7.84375-8.417969 14.285156-15.890625 17.882812-7.472657 3.597656-16.074219 4.058594-23.886719 1.273438-16.476562-5.832032-34.835938-1.640625-47.152344 10.761718-5.828125 5.898438-13.777344 9.21875-22.074218 9.21875-8.292969 0-16.242188-3.320312-22.074219-9.21875-12.308594-12.410156-30.675781-16.601562-47.152344-10.761718-7.8125 2.785156-16.414063 2.324218-23.886719-1.273438s-13.195312-10.039062-15.886718-17.882812c-5.714844-16.515625-20.441407-28.253906-37.8125-30.152344-8.25-.882812-15.800782-5.027344-20.972657-11.511719s-7.53125-14.769531-6.554687-23.007812c2.015625-17.359375-6.152344-34.328125-20.984375-43.574219-7.050781-4.375-12.054688-11.386719-13.902344-19.472656-1.84375-8.085938-.375-16.574219 4.078125-23.574219 9.347656-14.761719 9.347656-33.59375 0-48.359375-4.453125-6.996094-5.921875-15.484375-4.078125-23.574219 1.847656-8.085937 6.851563-15.097656 13.902344-19.46875 14.828125-9.25 23-26.214843 20.988281-43.574219-.976562-8.238281 1.382812-16.523437 6.554688-23.007812 5.171874-6.488281 12.722656-10.632812 20.972656-11.515625 17.371094-1.894531 32.097656-13.636719 37.8125-30.152344 2.691406-7.84375 8.414062-14.28125 15.886718-17.882812 7.472657-3.597657 16.074219-4.054688 23.886719-1.269531 16.476563 5.828124 34.839844 1.640624 47.152344-10.761719 5.832031-5.898438 13.78125-9.21875 22.074219-9.21875 8.296875 0 16.246094 3.320312 22.074218 9.21875 12.316407 12.402343 30.675782 16.589843 47.152344 10.761719 7.8125-2.785157 16.414063-2.328126 23.886719 1.269531 7.472656 3.601562 13.195313 10.039062 15.890625 17.882812 5.714844 16.515625 20.4375 28.257813 37.8125 30.152344 8.246094.882813 15.796875 5.027344 20.96875 11.515625 5.171875 6.484375 7.535156 14.769531 6.558594 23.007812-2.019532 17.359376 6.152344 34.328126 20.984375 43.574219 7.046875 4.371094 12.054687 11.382813 13.898437 19.46875 1.847656 8.089844.378906 16.578125-4.074218 23.574219-9.351563 14.765625-9.351563 33.59375-.003907 48.359375zm-205.148437-194.460937c-94.046875 0-170.28125 76.242187-170.28125 170.285156 0 94.042968 76.242187 170.28125 170.285156 170.28125 94.046875 0 170.28125-76.238282 170.28125-170.285156-.105469-94-76.285156-170.175782-170.285156-170.28125zm0 326.570312c-86.3125-.003906-156.28125-69.972656-156.28125-156.285156s69.96875-156.28125 156.28125-156.28125c86.3125-.003906 156.285156 69.964844 156.285156 156.277344-.097656 86.273437-70.011719 156.1875-156.285156 156.285156zm0 0" />
        </g>
    </symbol>
    <symbol id="svg_sale" viewBox="0 0 64 64">
        <g>
            <path d="M23.1,43.728a3,3,0,0,0-4.243,0l-1.414,1.414a1,1,0,0,1-1.415,0l-1.414-1.414a1,1,0,0,1,0-1.415l2.828-2.828a1,1,0,0,0-1.414-1.414L13.2,40.9a3,3,0,0,0,0,4.243l1.414,1.414a3,3,0,0,0,4.243,0l1.414-1.414a1,1,0,0,1,1.415,0L23.1,46.556a1,1,0,0,1,0,1.415L20.272,50.8a1,1,0,1,0,1.414,1.414l2.829-2.828a3,3,0,0,0,0-4.243Z" />
            <path d="M34.515,37.628,23.908,31.264a1,1,0,0,0-1.221.15l-1.415,1.415a1,1,0,0,0-.15,1.221l6.364,10.607a1,1,0,1,0,1.715-1.03l-1.72-2.866,3.138-3.138,2.866,1.72a1,1,0,0,0,1.03-1.715ZM26.42,38.994l-3.182-5.3.31-.31,5.3,3.182Z" />
            <path d="M40.657,30.414,37.121,33.95l-7.778-7.778a1,1,0,1,0-1.414,1.414l8.485,8.485a1,1,0,0,0,1.414,0l4.243-4.243a1,1,0,0,0-1.414-1.414Z" />
            <path d="M47.314,23.757l-2.829,2.829-2.828-2.829,1.414-1.414a1,1,0,0,0-1.414-1.414l-1.414,1.414-2.829-2.828,2.829-2.829a1,1,0,1,0-1.414-1.414l-3.536,3.536a1,1,0,0,0,0,1.414l8.485,8.485a1,1,0,0,0,1.414,0l3.536-3.536a1,1,0,1,0-1.414-1.414Z" />
            <path d="M58.261,17.63,59.373,10.4A5,5,0,0,0,53.694,4.7l-15.4,2.3a9.054,9.054,0,0,0-5.036,2.538L3.3,39.485a5,5,0,0,0,0,7.071L17.444,60.7a5,5,0,0,0,7.071,0l16.4-16.4C42.63,52.683,46.488,58,51,58c6.168,0,11-10.1,11-23C62,28.252,60.635,21.959,58.261,17.63ZM23.1,59.284a3.071,3.071,0,0,1-4.243,0L4.716,45.142a3,3,0,0,1,0-4.243L34.669,10.946a7.048,7.048,0,0,1,3.917-1.973l15.4-2.3a3.023,3.023,0,0,1,.453-.034A3,3,0,0,1,57.4,10.1l-.775,5.042a10.3,10.3,0,0,0-1.947-1.859,3.971,3.971,0,0,0-1.168-2.787,4.1,4.1,0,0,0-5.657,0A4,4,0,1,0,54.1,15.378a11.167,11.167,0,0,1,2.085,2.629l-1.142,7.424a6.955,6.955,0,0,1-1.97,3.885ZM51,14a3.8,3.8,0,0,1,1.421.286,2.028,2.028,0,0,1-.329.451,2.026,2.026,0,1,1,.22-2.561A5.621,5.621,0,0,0,51,12a1,1,0,0,0,0,2Zm0,42c-3.614,0-7.017-5.5-8.365-13.422L54.482,30.73a8.934,8.934,0,0,0,2.532-5l.7-4.523A39.263,39.263,0,0,1,60,35C60,46.383,55.878,56,51,56Z" />
        </g>
    </symbol>
    <symbol id="svg_star" viewBox="0 0 511.98685 511">
        <g>
            <path xmlns="http://www.w3.org/2000/svg" d="m510.652344 185.902344c-3.351563-10.367188-12.546875-17.730469-23.425782-18.710938l-147.773437-13.417968-58.433594-136.769532c-4.308593-10.023437-14.121093-16.511718-25.023437-16.511718s-20.714844 6.488281-25.023438 16.535156l-58.433594 136.746094-147.796874 13.417968c-10.859376 1.003906-20.03125 8.34375-23.402344 18.710938-3.371094 10.367187-.257813 21.738281 7.957031 28.90625l111.699219 97.960937-32.9375 145.089844c-2.410156 10.667969 1.730468 21.695313 10.582031 28.09375 4.757813 3.4375 10.324219 5.1875 15.9375 5.1875 4.839844 0 9.640625-1.304687 13.949219-3.882813l127.46875-76.183593 127.421875 76.183593c9.324219 5.609376 21.078125 5.097657 29.910156-1.304687 8.855469-6.417969 12.992187-17.449219 10.582031-28.09375l-32.9375-145.089844 111.699219-97.941406c8.214844-7.1875 11.351563-18.539063 7.980469-28.925781zm0 0" />
        </g>
    </symbol>
    <symbol id="svg_favorite" viewBox="0 0 512 512">
        <g>
            <path d="M469.585,80.732c-55.679-52.984-146.306-52.984-202.003-0.012l-11.581,11l-11.569-10.995    c-55.703-52.979-146.318-52.973-202.021,0C15.061,106.739,0,141.244,0,177.874c0,36.642,15.061,71.141,42.415,97.166    l201.219,191.033c3.461,3.294,7.917,4.934,12.366,4.934c4.449,0,8.899-1.647,12.366-4.94l201.219-191.027    C496.933,249.021,512,214.517,512,177.88C512,141.244,496.933,106.745,469.585,80.732z M444.829,248.991L256,428.269    L67.177,248.997C47.026,229.835,35.93,204.576,35.93,177.88s11.096-51.955,31.247-71.117    c21.019-20.001,48.625-29.995,76.237-29.995c27.618,0,55.236,10.006,76.255,30.007l23.953,22.75c6.934,6.593,17.815,6.593,24.75,0    l23.959-22.762c42.044-39.996,110.448-39.996,152.492,0c20.145,19.163,31.247,44.421,31.247,71.117    S464.968,229.829,444.829,248.991z" />
        </g>
    </symbol>
    <symbol id="svg_basket" viewBox="0 0 512 512">
        <g xmlns="http://www.w3.org/2000/svg">
            <path d="m256 272.167c-8.284 0-15 6.716-15 15v112.883c0 8.284 6.716 15 15 15s15-6.716 15-15v-112.883c0-8.284-6.716-15-15-15z" />
            <path d="m176.368 285.932c-.683-8.256-7.927-14.395-16.185-13.714-8.256.683-14.396 7.929-13.714 16.185l9.329 112.883c.683 8.258 7.929 14.396 16.185 13.714 8.256-.683 14.396-7.929 13.714-16.185z" />
            <path d="m351.816 272.218c-8.259-.684-15.502 5.458-16.185 13.714l-9.329 112.883c-.682 8.256 5.458 15.502 13.714 16.185.42.035.838.052 1.252.052 7.725 0 14.285-5.93 14.933-13.766l9.329-112.883c.683-8.256-5.458-15.502-13.714-16.185z" />
            <path d="m497 203.332c-29.669 0-25.796 0-42.381 0l-73.4-166.275c-2.399-5.436-7.781-8.942-13.723-8.942h-35.905c-8.284 0-15 6.716-15 15s6.716 15 15 15h26.13l64.105 145.218h-331.651l64.104-145.218h26.13c8.284 0 15-6.716 15-15s-6.716-15-15-15h-35.905c-5.941 0-11.323 3.507-13.723 8.942l-73.4 166.275c-18.796 0 3.141 0-42.382 0-8.284 0-15 6.716-15 15s6.716 15 15 15h15.725l37.182 237.87c1.141 7.301 7.43 12.684 14.82 12.684h346.547c7.39 0 13.679-5.382 14.82-12.684l37.182-237.87h15.725c8.284 0 15-6.716 15-15s-6.716-15-15-15zm-80.564 250.554h-320.872l-34.475-220.554h389.822z" />
        </g>
    </symbol>
    <symbol id="svg_down-more" viewBox="0 0 192.701 192.701">
    <g>
        <path d="M171.955,88.526l-75.61,74.528l-75.61-74.54c-4.74-4.704-12.439-4.704-17.179,0c-4.74,4.704-4.74,12.319,0,17.011
            l84.2,82.997c4.559,4.511,12.608,4.535,17.191,0l84.2-83.009c4.74-4.692,4.74-12.319,0-17.011
            C184.394,83.823,176.695,83.823,171.955,88.526z"/>
        <path d="M87.755,104.322c4.559,4.511,12.608,4.535,17.191,0l84.2-82.997c4.74-4.704,4.74-12.319,0-17.011
            c-4.74-4.704-12.439-4.704-17.179,0L96.345,78.842L20.734,4.314c-4.74-4.704-12.439-4.704-17.179,0
            c-4.74,4.704-4.74,12.319,0,17.011L87.755,104.322z"/>
    </g>
    </symbol>
    <symbol id="svg_plus" viewBox="0 0 512 512">
    <g>
        <g>
            <path d="M256,0C114.833,0,0,114.833,0,256s114.833,256,256,256s256-114.853,256-256S397.167,0,256,0z M256,472.341
                c-119.275,0-216.341-97.046-216.341-216.341S136.725,39.659,256,39.659S472.341,136.705,472.341,256S375.295,472.341,256,472.341z
                "/>
        </g>
    </g>
    <g>
        <g>
            <path d="M355.148,234.386H275.83v-79.318c0-10.946-8.864-19.83-19.83-19.83s-19.83,8.884-19.83,19.83v79.318h-79.318
                c-10.966,0-19.83,8.884-19.83,19.83s8.864,19.83,19.83,19.83h79.318v79.318c0,10.946,8.864,19.83,19.83,19.83
                s19.83-8.884,19.83-19.83v-79.318h79.318c10.966,0,19.83-8.884,19.83-19.83S366.114,234.386,355.148,234.386z"/>
        </g>
    </g>
    </symbol>
</svg>
