<svg height="512" viewBox="0 0 58 60" width="512" xmlns="http://www.w3.org/2000/svg"><g id="Page-1" fill="none" fill-rule="evenodd"><g id="019---Toilet-Roll" fill="rgb(0,0,0)" fill-rule="nonzero"><path id="Shape" d="m14 52.978v6.022c0 .5522847.4477153 1 1 1h.085c.138-.013 12.806-1.22 14.677-10.6 2.338 2.054 6.814 3.426 12.238 3.578v6.022c0 .5522847.4477153 1 1 1h.085c.149-.017 14.915-1.416 14.915-13v-25c0-3.833-5.954-6.752-14-6.978v-8.022c0-3.991-6.448-7-15-7s-15 3.009-15 7v8.022c-8.046.226-14 3.145-14 6.978v24c0 3.833 5.954 6.752 14 6.978zm-12-6.978v-20.417c2.544 2.075 7.3 3.417 13 3.417 5.035 0 9.328-1.048 12.017-2.721-2.961 5.842-11.66 6.686-12.1 6.725-.5181013.0431512-.9167143.4761049-.917.996v16.979c-7.118-.218-12-2.719-12-4.979zm14-30.978v-4.439c2.544 2.075 7.3 3.417 13 3.417s10.456-1.342 13-3.417v4.439c-6.1.171-10.991 1.892-13 4.388-2.009-2.496-6.9-4.217-13-4.388zm0 42.838v-22.986c2.368-.379 8.731-1.8 12-6.38v18.506c0 8.181-8.843 10.348-12 10.86zm14-11.86v-20.417c2.544 2.075 7.3 3.417 13 3.417 5.035 0 9.328-1.048 12.017-2.721-2.961 5.842-11.66 6.686-12.1 6.725-.5181013.0431512-.9167143.4761049-.917.996v16.979c-7.118-.218-12-2.719-12-4.979zm26 1c0 8.181-8.843 10.348-12 10.86v-22.986c2.368-.379 8.731-1.8 12-6.38zm0-25c0 2.365-5.339 5-13 5s-13-2.635-13-5 5.339-5 13-5 13 2.635 13 5zm-27-20c7.661 0 13 2.635 13 5s-5.339 5-13 5-13-2.635-13-5 5.339-5 13-5zm-14 15c7.661 0 13 2.635 13 5s-5.339 5-13 5-13-2.635-13-5 5.339-5 13-5z"/><path id="Shape" d="m15 25c2.89 0 6-.939 6-3s-3.11-3-6-3-6 .939-6 3 3.11 3 6 3zm0-4c2.348 0 3.718.673 3.975 1-.257.327-1.627 1-3.975 1s-3.718-.673-3.975-1c.257-.327 1.627-1 3.975-1z"/><path id="Shape" d="m29 10c2.89 0 6-.939 6-3s-3.11-3-6-3-6 .939-6 3 3.11 3 6 3zm0-4c2.348 0 3.718.673 3.975 1-.257.327-1.627 1-3.975 1s-3.718-.673-3.975-1c.257-.327 1.627-1 3.975-1z"/><path id="Shape" d="m37 22c0 2.061 3.11 3 6 3s6-.939 6-3-3.11-3-6-3-6 .939-6 3zm6 1c-2.348 0-3.718-.673-3.975-1 .257-.327 1.627-1 3.975-1s3.718.673 3.975 1c-.257.327-1.627 1-3.975 1z"/></g></g></svg>