<svg height="512" viewBox="0 0 128 128" width="512" xmlns="http://www.w3.org/2000/svg"><g><path d="m115.923 72.806v-.009l-15.54-30.55a1.748 1.748 0 0 0 -1.559-.957h-9.324l6.973-22.022a4.749 4.749 0 0 0 -6.706-5.651c-7.06 3.632-11.572 3.614-18.568-.08a15.406 15.406 0 0 0 -14.388 0c-6.995 3.693-11.507 3.713-18.568.08a4.749 4.749 0 0 0 -6.706 5.651l6.968 22.022h-9.325a1.748 1.748 0 0 0 -1.559.957l-15.54 30.553v.009a1.735 1.735 0 0 0 -.191.78v40.911a1.75 1.75 0 0 0 1.75 1.75h100.724a1.75 1.75 0 0 0 1.75-1.75v-40.914a1.735 1.735 0 0 0 -.191-.78zm-80.671-55.92a1.218 1.218 0 0 1 1.385-.158c8.084 4.162 13.79 4.137 21.8-.1a11.9 11.9 0 0 1 11.12 0c8.013 4.23 13.719 4.257 21.8.1a1.218 1.218 0 0 1 1.385.158 1.2 1.2 0 0 1 .383 1.325l-12.137 38.35h-33.976l-12.143-38.35a1.2 1.2 0 0 1 .383-1.325zm-5 27.9h9.36l3.728 11.774h-8.567a1.75 1.75 0 0 0 0 3.5h58.454a1.75 1.75 0 0 0 0-3.5h-8.568l3.728-11.77h9.36l13.753 27.046h-95zm-14.866 67.959v-37.405h97.228v37.405z"/><path d="m64 83.836c-15.732 0-31.659 3.5-31.659 10.2s15.927 10.2 31.659 10.2 31.659-3.506 31.659-10.2-15.927-10.2-31.659-10.2zm0 16.909c-18.22 0-28.159-4.43-28.159-6.7s9.939-6.7 28.159-6.7 28.159 4.429 28.159 6.7-9.939 6.7-28.159 6.7z"/><path d="m51.95 44.393a1.75 1.75 0 0 0 1.71-2.127l-3.545-16.091a1.75 1.75 0 1 0 -3.418.754l3.545 16.091a1.751 1.751 0 0 0 1.708 1.373z"/><path d="m64 52.75a1.75 1.75 0 0 0 1.75-1.75v-27a1.75 1.75 0 0 0 -3.5 0v27a1.75 1.75 0 0 0 1.75 1.75z"/></g></svg>