<svg height="512" viewBox="0 0 60 54" width="512" xmlns="http://www.w3.org/2000/svg"><g id="Page-1" fill="none" fill-rule="evenodd"><g id="045---Toilet-Roll" fill="rgb(0,0,0)" fill-rule="nonzero"><path id="Shape" d="m40 0h-37.083c-.74518362.00030155-1.42840473.41486707-1.77279256 1.07569666-.34438782.66082959-.29282516 1.45832376.13379256 2.06930334l3.5 5.018-4.2 6.021c-.47688312.6884857-.47688312 1.6005143 0 2.289l4.2 6.016-4.2 6.023c-.47699881.6880837-.47699881 1.5999163 0 2.288l4.2 6.027-3.503 5.029c-.42625358.6112518-.47732286 1.4087956-.13251164 2.0694212.34481122.6606255 1.02831314 1.0747624 1.77351164 1.0745788h17.084c0 5.047 8.785 9 20 9s20-3.953 20-9v-36c0-5.047-8.785-9-20-9zm-37.084 43 3.505-5.028c.47699881-.6880837.47699881-1.5999163 0-2.288l-4.2-6.028 4.2-6.023c.47688312-.6884857.47688312-1.6005143 0-2.289l-4.2-6.017 4.2-6.019c.47746111-.68830501.47746111-1.60069499 0-2.289l-3.504-5.019h24.383c-4.48 1.637-7.3 4.142-7.3 7v34zm37.084 9c-10.608 0-18-3.689-18-7v-32.036c3.206 3 9.97 5.036 18 5.036s14.794-2.032 18-5.036v32.036c0 3.311-7.393 7-18 7zm0-36c-10.608 0-18-3.689-18-7s7.392-7 18-7 18 3.689 18 7-7.393 7-18 7z"/><path id="Shape" d="m40 4c-5.3 0-11 1.252-11 4s5.7 4 11 4 11-1.252 11-4-5.7-4-11-4zm0 6c-5.851 0-8.849-1.46-9-1.985.151-.555 3.149-2.015 9-2.015 5.8 0 8.8 1.435 9 2-.2.565-3.2 2-9 2z"/><path id="Shape" d="m25 18c-.5522847 0-1 .4477153-1 1v2c0 .5522847.4477153 1 1 1s1-.4477153 1-1v-2c0-.5522847-.4477153-1-1-1z"/><path id="Shape" d="m25 24c-.5522847 0-1 .4477153-1 1v19c0 .5522847.4477153 1 1 1s1-.4477153 1-1v-19c0-.5522847-.4477153-1-1-1z"/></g></g></svg>