<svg id="Layer_5" enable-background="new 0 0 62 62" height="512" viewBox="0 0 62 62" width="512" xmlns="http://www.w3.org/2000/svg"><g><path d="m46 0h-41c-2.757 0-4.999 2.242-5 4.999v42.001c0 2.757 2.243 5 5 5h5v-8h20v8c0 5.701 6.879 10 16 10s16-4.299 16-10v-42c0-5.701-6.879-10-16-10zm14 10c0 4.561-6.019 8-14 8s-14-3.439-14-8 6.019-8 14-8 14 3.439 14 8zm-52 40h-3c-1.654 0-3-1.346-3-3v-38.002c.836.628 1.875 1.002 3 1.002h3zm2-8v-34h-5c-1.654 0-3-1.346-3-3s1.346-3 3-3h31.194c-3.808 1.794-6.194 4.651-6.194 8v32zm50 10c0 4.561-6.019 8-14 8s-14-3.439-14-8v-37.022c2.679 3.045 7.821 5.022 14 5.022s11.321-1.977 14-5.022z"/><path d="m46 14c3.364 0 6-1.757 6-4s-2.636-4-6-4-6 1.757-6 4 2.636 4 6 4zm0-6c2.289 0 4 1.056 4 2s-1.711 2-4 2-4-1.056-4-2 1.711-2 4-2z"/><path d="m38 45.029h2v4h-2z"/><path d="m38 29.029h2v4h-2z"/><path d="m38 21.029h2v4h-2z"/><path d="m38 37.029h2v4h-2z"/><path d="m38 53.029h2v3.966h-2z"/><path d="m24 36h2v4h-2z"/><path d="m24 20h2v4h-2z"/><path d="m24 12h2v4h-2z"/><path d="m24 28h2v4h-2z"/><path d="m24 4h2v4h-2z"/></g></svg>