<svg id="Capa_1" enable-background="new 0 0 512.003 512.003" height="512" viewBox="0 0 512.003 512.003" width="512" xmlns="http://www.w3.org/2000/svg"><g><path d="m511.813 380.839c-.76-8.453-7.525-16.679-15.774-20.673-6.859-4.122-12.279-10.482-15.263-17.907l-5.407-13.456c-5.973-14.865-16.313-27.206-29.905-35.689-14.345-8.953-32.715-6.855-44.671 5.102l-8.267 8.267-16.778-16.778c-5.433-5.433-13.943-5.927-19.958-1.521l-56.69-56.69 119.479-119.479c2.929-2.929 2.929-7.678 0-10.606-2.929-2.929-7.678-2.929-10.606 0l-208.53 208.53-16.922-16.917 253.73-253.734c4.665-4.665 12.255-4.665 16.92 0s4.665 12.255 0 16.92l-19.893 19.892c-2.929 2.929-2.929 7.678 0 10.606 2.929 2.93 7.678 2.929 10.606 0l19.893-19.892c10.513-10.513 10.513-27.62 0-38.133-10.513-10.514-27.62-10.514-38.133 0l-164.673 164.674-165.997-165.996c-9.338-9.706-27.582-10.892-38.14.003-10.506 10.52-10.504 27.626.003 38.133l145.816 145.817c1.464 1.464 3.384 2.197 5.303 2.197s3.839-.732 5.303-2.197c2.929-2.929 2.929-7.678 0-10.606l-145.816-145.818c-4.663-4.663-4.661-12.256 0-16.924 3.78-3.72 11.576-5.23 16.923 0l165.997 165.997-78.594 78.594c-6.014-4.405-14.521-3.909-19.953 1.522l-24.569 24.569c-25.638-12.596-57.556-8.264-78.852 13.032l-22.84 22.84-12.752-12.752c-2.929-2.929-7.678-2.929-10.606 0-2.929 2.929-2.929 7.678 0 10.606l147.889 147.889c2.345 2.163 6.713 3.401 10.606 0 2.929-2.929 2.929-7.678 0-10.606l-124.53-124.53 22.84-22.84c20.916-20.916 54.948-20.917 75.864 0l25.307 25.307c20.916 20.916 20.916 54.948 0 75.863l-2.528 2.528c-2.929 2.929-2.929 7.678 0 10.606 2.929 2.929 7.678 2.929 10.606 0l2.528-2.528c21.296-21.296 25.627-53.21 13.034-78.848l24.57-24.57c4.594-4.626 6.348-13.18 1.526-19.963l51.058-51.058 56.691 56.691c-4.404 6.015-3.908 14.523 1.524 19.955l16.778 16.778-8.267 8.267c-11.957 11.957-14.054 30.327-5.101 44.672 8.482 13.591 20.824 23.932 35.688 29.904l13.456 5.407c7.425 2.984 13.785 8.404 17.908 15.264 6.348 15.217 28.197 22.066 41.363 8.648l73.682-73.682c5.469-5.467 8.066-13.008 7.124-20.687zm-314.036-50.8-22.233 22.232c-6.61-7.465-27.634-28.532-35.353-35.354l22.232-22.232c8.882 7.873 27.678 26.604 35.354 35.354zm90.715-87.939 56.55 56.55-16.92 16.917-56.548-56.548zm41.296 93.565c.9-1.915 35.644-36.651 35.353-35.354l16.778 16.778-35.353 35.353zm82.355 131.783c-3.6-.188-7.618-4.262-9.644-8.613-5.794-9.641-14.733-17.26-25.171-21.454l-13.456-5.408c-11.894-4.779-21.769-13.053-28.557-23.928-5.236-8.389-4.009-19.131 2.983-26.124l73.101-73.101c6.577-6.264 16.7-8.506 26.123-2.983 10.875 6.788 19.149 16.662 23.929 28.557l5.407 13.456c4.194 10.438 11.813 19.376 21.453 25.17 6.509 2.573 12.198 10.606 5.771 17.901l-7.666 7.666-23.812 4.999c-4.054.851-6.65 4.827-5.799 8.881.764 3.404 5.286 7.308 10.211 5.52l-20.2 20.2c1.273-3.519-.595-8.928-5.519-10.211-4.053-.851-8.03 1.744-8.881 5.799l-4.999 23.813c-4.217 3.748-8.126 10.457-15.274 9.86z"/><path d="m384.125 370.806c-4.05-.85-8.03 1.745-8.881 5.799l-5.458 25.997c-.851 4.054 1.745 8.03 5.799 8.881 3.15.67 7.464-1.106 8.881-5.799l5.458-25.997c.851-4.054-1.745-8.03-5.799-8.881z"/><path d="m412.711 399.391c-4.052-.851-8.03 1.745-8.881 5.799l-5.458 25.997c-.851 4.054 1.745 8.03 5.799 8.881 3.15.67 7.464-1.106 8.881-5.799l5.458-25.997c.85-4.054-1.746-8.03-5.799-8.881z"/><path d="m406.965 361.258c.511 0 1.029-.052 1.549-.162l25.997-5.458c4.054-.851 6.65-4.827 5.799-8.881s-4.83-6.655-8.881-5.799l-25.997 5.458c-4.054.851-6.65 4.827-5.799 8.881.742 3.535 3.859 5.961 7.332 5.961z"/><path d="m428.218 383.883c.623 2.83 4.301 6.778 8.881 5.799l25.997-5.458c4.054-.851 6.65-4.827 5.799-8.881s-4.831-6.652-8.881-5.799l-25.997 5.458c-4.053.852-6.65 4.828-5.799 8.881z"/></g></svg>